Coordinates											
version=1											
nRows=41											
nColumns=12											
inDegrees=yes											
											
"Units are S.I. units (second, meters, Newtons, ...)"											
"If the header above contains a line with 'inDegrees', this indicates whether rotational values are in degrees (yes) or radians (no)."											
											
endheader											
time	clav_prot	clav_elev	scapula_abduction	scapula_elevation	scapula_upward_rot	scapula_winging	plane_elv	shoulder_elv	axial_rot	elbow_flexion	pro_sup
3.97	-47.84440611	12.61618612	-5.91981081	0.4660838	84.09231668	-15.01236383	43.31869215	86.16530696	-9.45530908	0	34.32
3.98	-47.78602947	12.67287008	-5.96318691	0.4885514	83.9286354	-15.00919543	43.6340869	86.02406781	-9.30218871	0	34.32
3.99	-47.75951777	12.78054362	-6.07995705	0.54146811	83.75770027	-15.04089793	44.02152784	85.92496346	-9.30431197	0	34.32
4	-47.6877888	12.86604066	-6.11120043	0.58435364	83.59264917	-15.03306855	44.38816833	85.88189033	-9.30180316	0	34.32
4.01	-47.67859923	12.9213481	-6.23437217	0.60238745	83.43159413	-15.06563903	44.8736081	85.80665932	-9.3898227	0	34.32
4.02	-47.51420429	12.91844547	-6.00740102	0.60720016	83.37063351	-14.95258675	44.99518437	85.61240418	-9.47388651	0	34.32
4.03	-47.32192119	12.89726463	-5.92259336	0.57190778	83.05459305	-14.86186987	45.42194036	85.82127442	-9.592558	0	34.32
4.04	-47.2014136	12.98961693	-5.84541789	0.6287616	82.92927912	-14.81162181	45.81156021	85.81856243	-9.52371829	0	34.32
4.05	-47.09836998	13.04016662	-5.83194242	0.64921378	82.74276582	-14.77770014	46.3312201	85.80339902	-9.48166809	0	34.32
4.06	-46.96191679	13.02797154	-5.70413214	0.63727023	82.60844897	-14.69823565	46.46591078	85.50408947	-9.56760659	0	34.32
4.07	-46.72637318	12.88725901	-5.59274169	0.5156432	82.18850241	-14.57304519	46.82838237	85.43798911	-9.69660779	0	34.32
4.08	-46.51764013	12.79542117	-5.49423862	0.43194021	81.82954153	-14.46569166	47.20036539	85.32894905	-10.07821375	0	34.32
4.09	-46.26749754	12.74699826	-5.27701327	0.39029923	81.55209445	-14.32331076	47.62062468	85.32536717	-10.54192802	0	34.32
4.1	-46.08937348	12.79110812	-5.15173392	0.41240384	81.34681697	-14.23829611	48.13372528	85.23091391	-10.45963297	0	34.32
4.11	-45.93180053	12.85857128	-5.14415709	0.43791226	81.043388	-14.18878976	48.83190583	85.12768282	-10.64904969	0	34.32
4.12	-45.78514051	12.8817623	-5.19714867	0.42604106	80.6693718	-14.15021051	49.60425632	84.95439031	-11.00112683	0	34.32
4.13	-45.61229848	12.85487035	-5.2107855	0.38137902	80.27128072	-14.08719878	50.29561161	84.69393725	-11.19120199	0	34.32
4.14	-45.3913331	12.78836332	-5.00825567	0.33139463	80.03213143	-13.95846332	50.65196749	84.22726267	-11.24349652	0	34.32
4.15	-45.18468246	12.81517236	-5.07928059	0.31448689	79.51114463	-13.90060294	51.4103889	84.14154581	-11.30009671	0	34.32
4.16	-44.967952	12.89482823	-5.00064935	0.35370641	79.18068269	-13.81599835	51.9240931	83.94285903	-11.37864411	0	34.32
4.17	-44.76194819	12.97287051	-4.83073897	0.40472801	78.98846005	-13.71814797	52.31636504	83.61052999	-11.33056783	0	34.32
4.18	-44.49897385	13.07018397	-4.62074246	0.46789313	78.73343601	-13.59480774	52.64306744	83.33863149	-11.32882174	0	34.32
4.19	-44.33880554	13.05709384	-4.87819689	0.41057824	78.06580018	-13.58123549	53.53298983	83.55752742	-12.87420866	0	34.32
4.2	-44.1559939	13.12842679	-4.84224078	0.44557226	77.75328867	-13.515432	53.90534306	83.20176786	-13.72893693	0	34.32
4.21	-43.90785029	13.202965	-4.74026504	0.48424914	77.38778291	-13.41416407	54.37323213	82.91955128	-14.28087615	0	34.32
4.22	-43.62773022	13.31798042	-4.59601889	0.55362309	77.02438371	-13.29868925	54.85012067	82.74700413	-14.72642424	0	34.32
4.23	-43.4152056	13.41000073	-4.25772126	0.63439946	77.03454311	-13.1739972	55.0312371	82.16137698	-13.74686536	0	34.32
4.24	-43.18922021	13.4144051	-4.3824483	0.60404783	76.40842242	-13.11102663	55.46453849	83.15412872	-23.13119774	0	34.32
4.25	-43.00377825	13.30891477	-4.17714189	0.53570105	76.23296541	-12.99794715	55.9484314	82.91610208	-23.00925385	0	34.32
4.26	-43.10265678	13.27669966	-4.58670679	0.48037213	75.92113486	-13.09524143	57.19943782	82.49668234	-20.45729727	0	34.32
4.27	-42.9569154	13.51455073	-4.73177098	0.62101369	75.53348264	-13.0885671	57.72794377	82.2411101	-19.38321094	0	34.32
4.28	-42.74635521	13.80678667	-4.76103648	0.80670589	75.17768531	-13.0432734	57.98591567	81.97017315	-18.92625056	0	34.32
4.29	-42.51271626	13.94425341	-4.67437213	0.89459119	74.8552136	-12.95449718	58.2127264	81.66175563	-18.6544678	0	34.32
4.3	-42.26853555	13.8591657	-4.48932498	0.83648809	74.54108635	-12.82545906	58.50360342	81.27551688	-18.37312688	0	34.32
4.31	-42.0189276	13.72013844	-4.30255143	0.74124577	74.19613884	-12.68917624	58.83286938	80.85644768	-18.1301439	0	34.32
4.32	-41.81948298	13.71093126	-4.27652881	0.72607299	73.8121778	-12.60774906	59.27182424	80.51662931	-18.13257422	0	34.32
4.33	-41.70412628	13.8258658	-4.45763002	0.78535675	73.40169563	-12.59820298	59.87477956	80.21581774	-18.27675221	0	34.32
4.34	-41.60988644	13.95731249	-4.36153939	0.87964891	73.37748042	-12.5627707	60.02563667	79.18576015	-16.74443933	0	34.32
4.35	-41.45860522	13.98811653	-4.41761313	0.88989083	73.01150579	-12.51346614	60.48176819	78.60173589	-15.46684128	0	34.32
4.36	-41.26930089	13.93817124	-4.32968953	0.85431549	72.70830594	-12.42323546	60.78489468	78.09972967	-14.60525248	0	34.32
4.37	-41.12770408	13.77288597	-4.43921276	0.72699034	72.21866185	-12.36217329	61.4941744	77.91984491	-14.52365758	0	34.32
